<mxfile host="app.diagrams.net" modified="2024-03-27T09:38:40.595Z" agent="Mozilla/5.0 (X11; Linux x86_64; rv:124.0) Gecko/20100101 Firefox/124.0" etag="1hqBRX7zGyVFC4AeKSEd" version="24.1.0" type="github">
  <diagram name="Page-1" id="LqIAJE4S_lniL55LiCI9">
    <mxGraphModel dx="1136" dy="697" grid="1" gridSize="10" guides="1" tooltips="1" connect="1" arrows="1" fold="1" page="1" pageScale="1" pageWidth="827" pageHeight="1169" math="0" shadow="0">
      <root>
        <mxCell id="0" />
        <mxCell id="1" parent="0" />
        <mxCell id="yN322FvcS3JYn2dd1io0-1" value="" style="endArrow=classic;html=1;rounded=0;" edge="1" parent="1" source="yN322FvcS3JYn2dd1io0-4" target="yN322FvcS3JYn2dd1io0-5">
          <mxGeometry width="50" height="50" relative="1" as="geometry">
            <mxPoint x="200" y="500" as="sourcePoint" />
            <mxPoint x="640" y="500" as="targetPoint" />
          </mxGeometry>
        </mxCell>
        <mxCell id="yN322FvcS3JYn2dd1io0-3" value="&lt;i&gt;v&lt;sub&gt;i &lt;/sub&gt;-&amp;gt;v&lt;sub&gt;j&lt;/sub&gt;&lt;/i&gt; , &amp;lt;0.1, 0.4, 0.5, 0.6, 0.81&amp;gt;" style="text;html=1;align=center;verticalAlign=middle;whiteSpace=wrap;rounded=0;" vertex="1" parent="1">
          <mxGeometry x="270" y="470" width="230" height="30" as="geometry" />
        </mxCell>
        <mxCell id="yN322FvcS3JYn2dd1io0-4" value="" style="ellipse;whiteSpace=wrap;html=1;aspect=fixed;" vertex="1" parent="1">
          <mxGeometry x="80" y="440" width="120" height="120" as="geometry" />
        </mxCell>
        <mxCell id="yN322FvcS3JYn2dd1io0-5" value="" style="ellipse;whiteSpace=wrap;html=1;aspect=fixed;" vertex="1" parent="1">
          <mxGeometry x="620" y="440" width="120" height="120" as="geometry" />
        </mxCell>
        <mxCell id="yN322FvcS3JYn2dd1io0-6" value="Ag_&lt;i&gt;A&lt;/i&gt;" style="rounded=0;whiteSpace=wrap;html=1;" vertex="1" parent="1">
          <mxGeometry x="120" y="423" width="40" height="20" as="geometry" />
        </mxCell>
        <mxCell id="yN322FvcS3JYn2dd1io0-7" value="Ag_&lt;i&gt;B&lt;/i&gt;" style="rounded=0;whiteSpace=wrap;html=1;" vertex="1" parent="1">
          <mxGeometry x="660" y="423" width="40" height="20" as="geometry" />
        </mxCell>
        <mxCell id="yN322FvcS3JYn2dd1io0-8" value="" style="shape=flexArrow;endArrow=classic;startArrow=classic;html=1;rounded=0;" edge="1" parent="1">
          <mxGeometry width="100" height="100" relative="1" as="geometry">
            <mxPoint x="180" y="600" as="sourcePoint" />
            <mxPoint x="620" y="600" as="targetPoint" />
          </mxGeometry>
        </mxCell>
        <mxCell id="yN322FvcS3JYn2dd1io0-9" value="" style="endArrow=none;html=1;rounded=0;" edge="1" parent="1">
          <mxGeometry width="50" height="50" relative="1" as="geometry">
            <mxPoint x="280" y="610" as="sourcePoint" />
            <mxPoint x="280" y="590" as="targetPoint" />
          </mxGeometry>
        </mxCell>
        <mxCell id="yN322FvcS3JYn2dd1io0-10" value="" style="endArrow=none;html=1;rounded=0;" edge="1" parent="1">
          <mxGeometry width="50" height="50" relative="1" as="geometry">
            <mxPoint x="360" y="610" as="sourcePoint" />
            <mxPoint x="360" y="590" as="targetPoint" />
          </mxGeometry>
        </mxCell>
        <mxCell id="yN322FvcS3JYn2dd1io0-11" value="" style="endArrow=none;html=1;rounded=0;" edge="1" parent="1">
          <mxGeometry width="50" height="50" relative="1" as="geometry">
            <mxPoint x="440" y="610" as="sourcePoint" />
            <mxPoint x="440" y="590" as="targetPoint" />
          </mxGeometry>
        </mxCell>
        <mxCell id="yN322FvcS3JYn2dd1io0-12" value="" style="endArrow=none;html=1;rounded=0;" edge="1" parent="1">
          <mxGeometry width="50" height="50" relative="1" as="geometry">
            <mxPoint x="520" y="610" as="sourcePoint" />
            <mxPoint x="520" y="590" as="targetPoint" />
          </mxGeometry>
        </mxCell>
        <mxCell id="yN322FvcS3JYn2dd1io0-13" value="[0,0.2[" style="text;html=1;align=center;verticalAlign=middle;whiteSpace=wrap;rounded=0;" vertex="1" parent="1">
          <mxGeometry x="210" y="600" width="60" height="30" as="geometry" />
        </mxCell>
        <mxCell id="yN322FvcS3JYn2dd1io0-14" value="[0.2,0.4[" style="text;html=1;align=center;verticalAlign=middle;whiteSpace=wrap;rounded=0;" vertex="1" parent="1">
          <mxGeometry x="290" y="600" width="60" height="30" as="geometry" />
        </mxCell>
        <mxCell id="yN322FvcS3JYn2dd1io0-15" value="[0.4,0.6[" style="text;html=1;align=center;verticalAlign=middle;whiteSpace=wrap;rounded=0;" vertex="1" parent="1">
          <mxGeometry x="370" y="600" width="60" height="30" as="geometry" />
        </mxCell>
        <mxCell id="yN322FvcS3JYn2dd1io0-16" value="[0.6,0.8[" style="text;html=1;align=center;verticalAlign=middle;whiteSpace=wrap;rounded=0;" vertex="1" parent="1">
          <mxGeometry x="450" y="600" width="60" height="30" as="geometry" />
        </mxCell>
        <mxCell id="yN322FvcS3JYn2dd1io0-17" value="[0.8,1[" style="text;html=1;align=center;verticalAlign=middle;whiteSpace=wrap;rounded=0;" vertex="1" parent="1">
          <mxGeometry x="530" y="600" width="60" height="30" as="geometry" />
        </mxCell>
        <mxCell id="yN322FvcS3JYn2dd1io0-18" value="" style="endArrow=none;dashed=1;html=1;dashPattern=1 3;strokeWidth=2;rounded=0;" edge="1" parent="1">
          <mxGeometry width="50" height="50" relative="1" as="geometry">
            <mxPoint x="240" y="590" as="sourcePoint" />
            <mxPoint x="240" y="510" as="targetPoint" />
          </mxGeometry>
        </mxCell>
        <mxCell id="yN322FvcS3JYn2dd1io0-19" value="" style="endArrow=none;dashed=1;html=1;dashPattern=1 3;strokeWidth=2;rounded=0;" edge="1" parent="1">
          <mxGeometry width="50" height="50" relative="1" as="geometry">
            <mxPoint x="360" y="590" as="sourcePoint" />
            <mxPoint x="360" y="510" as="targetPoint" />
          </mxGeometry>
        </mxCell>
        <mxCell id="yN322FvcS3JYn2dd1io0-20" value="" style="endArrow=none;dashed=1;html=1;dashPattern=1 3;strokeWidth=2;rounded=0;" edge="1" parent="1">
          <mxGeometry width="50" height="50" relative="1" as="geometry">
            <mxPoint x="400" y="590" as="sourcePoint" />
            <mxPoint x="400" y="510" as="targetPoint" />
          </mxGeometry>
        </mxCell>
        <mxCell id="yN322FvcS3JYn2dd1io0-21" value="" style="endArrow=none;dashed=1;html=1;dashPattern=1 3;strokeWidth=2;rounded=0;" edge="1" parent="1">
          <mxGeometry width="50" height="50" relative="1" as="geometry">
            <mxPoint x="440" y="590" as="sourcePoint" />
            <mxPoint x="440" y="510" as="targetPoint" />
          </mxGeometry>
        </mxCell>
        <mxCell id="yN322FvcS3JYn2dd1io0-22" value="" style="endArrow=none;dashed=1;html=1;dashPattern=1 3;strokeWidth=2;rounded=0;" edge="1" parent="1">
          <mxGeometry width="50" height="50" relative="1" as="geometry">
            <mxPoint x="525.31" y="590" as="sourcePoint" />
            <mxPoint x="525.31" y="510" as="targetPoint" />
          </mxGeometry>
        </mxCell>
        <mxCell id="yN322FvcS3JYn2dd1io0-26" value="&lt;font style=&quot;font-size: 41px;&quot;&gt;⇒&lt;/font&gt;" style="text;html=1;align=center;verticalAlign=middle;resizable=0;points=[];autosize=1;strokeColor=none;fillColor=none;rotation=90;" vertex="1" parent="1">
          <mxGeometry x="214" y="613" width="50" height="60" as="geometry" />
        </mxCell>
        <mxCell id="yN322FvcS3JYn2dd1io0-27" value="&lt;font style=&quot;font-size: 41px;&quot;&gt;⇒&lt;/font&gt;" style="text;html=1;align=center;verticalAlign=middle;resizable=0;points=[];autosize=1;strokeColor=none;fillColor=none;rotation=90;" vertex="1" parent="1">
          <mxGeometry x="294" y="613" width="50" height="60" as="geometry" />
        </mxCell>
        <mxCell id="yN322FvcS3JYn2dd1io0-28" value="&lt;font style=&quot;font-size: 41px;&quot;&gt;⇒&lt;/font&gt;" style="text;html=1;align=center;verticalAlign=middle;resizable=0;points=[];autosize=1;strokeColor=none;fillColor=none;rotation=90;" vertex="1" parent="1">
          <mxGeometry x="374" y="613" width="50" height="60" as="geometry" />
        </mxCell>
        <mxCell id="yN322FvcS3JYn2dd1io0-29" value="&lt;font style=&quot;font-size: 41px;&quot;&gt;⇒&lt;/font&gt;" style="text;html=1;align=center;verticalAlign=middle;resizable=0;points=[];autosize=1;strokeColor=none;fillColor=none;rotation=90;" vertex="1" parent="1">
          <mxGeometry x="454" y="613" width="50" height="60" as="geometry" />
        </mxCell>
        <mxCell id="yN322FvcS3JYn2dd1io0-30" value="&lt;font style=&quot;font-size: 41px;&quot;&gt;⇒&lt;/font&gt;" style="text;html=1;align=center;verticalAlign=middle;resizable=0;points=[];autosize=1;strokeColor=none;fillColor=none;rotation=90;" vertex="1" parent="1">
          <mxGeometry x="534" y="613" width="50" height="60" as="geometry" />
        </mxCell>
        <mxCell id="yN322FvcS3JYn2dd1io0-31" value="1&amp;nbsp; contact" style="text;html=1;align=center;verticalAlign=middle;whiteSpace=wrap;rounded=0;" vertex="1" parent="1">
          <mxGeometry x="209" y="660" width="60" height="30" as="geometry" />
        </mxCell>
        <mxCell id="yN322FvcS3JYn2dd1io0-32" value="0&amp;nbsp; contact" style="text;html=1;align=center;verticalAlign=middle;whiteSpace=wrap;rounded=0;" vertex="1" parent="1">
          <mxGeometry x="290" y="660" width="60" height="30" as="geometry" />
        </mxCell>
        <mxCell id="yN322FvcS3JYn2dd1io0-33" value="2&amp;nbsp; contacts" style="text;html=1;align=center;verticalAlign=middle;whiteSpace=wrap;rounded=0;" vertex="1" parent="1">
          <mxGeometry x="364.5" y="660" width="69" height="30" as="geometry" />
        </mxCell>
        <mxCell id="yN322FvcS3JYn2dd1io0-34" value="1&amp;nbsp; contact" style="text;html=1;align=center;verticalAlign=middle;whiteSpace=wrap;rounded=0;" vertex="1" parent="1">
          <mxGeometry x="449" y="660" width="60" height="30" as="geometry" />
        </mxCell>
        <mxCell id="yN322FvcS3JYn2dd1io0-35" value="1&amp;nbsp; contact" style="text;html=1;align=center;verticalAlign=middle;whiteSpace=wrap;rounded=0;" vertex="1" parent="1">
          <mxGeometry x="529" y="660" width="60" height="30" as="geometry" />
        </mxCell>
      </root>
    </mxGraphModel>
  </diagram>
</mxfile>
